<?xml version="1.0" encoding="UTF-8"?>
<svg width="600" height="120" version="1.1" xmlns="http://www.w3.org/2000/svg">
 <path d="m572.55 58.75c0.79589-6.1287-1.7013-10.247-10.337-10.247h-23.799s-1.1922-0.28677-1.3372 0.67667c-0.14178 0.96667-2.6003 14.384-2.9322 16.556-0.33511 2.1718 0.087 1.8463 1.7593 1.8463h23.538c6.2576 0 12.17-1.6111 13.108-8.8321m-34.613-22.678c-0.33511 2.1718 0.29 2.5101 1.9591 2.5101h23.226c6.2608 0 8.6485-3.6186 9.3187-7.8622 0.48333-3.0676-1.914-7.047-7.3145-7.047h-23.796s-1.1697-0.0161-1.3372 0.67667c-0.232 0.94733-1.7207 9.5539-2.0558 11.722m40.523 6.4284c4.7045 2.4424 13.669 7.5658 11.084 19.436-2.5778 11.871-11.658 15.924-19.971 15.924-8.3134 0-42.05 0.29-48.646 0.29-6.5959 0-6.4638-2.03-5.9869-4.7302 0.48011-2.7034 9.5217-52.596 10.382-57.227 0.86033-4.6336 4.3017-4.5369 8.41-4.5369 4.4596 0 39.186 0.0967 39.186 0.0967 9.048 0 16.121 4.2469 16.121 15.57 0 9.8439-9.6441 13.662-10.559 14.059-0.91834 0.39633-0.86034 0.67989-0.0193 1.1181m-132.18 31.114c-0.57356 3.7152 1.624 4.437 4.205 4.437 2.5778 0 49.133 0.19334 52.954 0 3.8248-0.19333 4.1116-1.0601 4.4918-3.0869 0.16111-0.85389 0.58-2.5681 1.3308-6.9149 0.01-0.0644 0.50912-2.5101-1.6562-2.5101h-41.67c-1.1922 0-0.65734-1.1471-0.64445-1.2116 0.95056-5.5358 1.9333-11.304 2.0848-12.222 0.28678-1.74 0.67023-1.9301 2.3909-1.9301 1.7174 0 30.237 0.0967 32.912 0.0967s3.2512-0.67667 3.7281-2.4134 1.2438-6.5605 1.4339-8.6839c0.19333-2.1267-0.38345-2.4134-2.1976-2.4134-1.8173 0-31.958 0.0967-33.775 0.0967-1.8141 0-1.624-0.38666-1.4339-2.3168 0.19333-1.9301 0.74433-3.7636 1.2244-6.8505 0.47689-3.0901 1.4339-2.7034 3.5348-2.7034 2.1041 0 33.93-0.0967 37.752-0.0967 3.8248 0 4.0149-0.96667 4.4918-3.0869a80.395 80.395 0 0 0 1.1471-6.467c0.38345-2.6068-0.47689-3.0869-2.8678-3.0869h-54.858c-2.8678 0-4.1083 0.38667-4.5884 2.8936-0.47689 2.5101-9.3348 54.233-9.9889 58.483m-54.095 3.9569c1.5789 0 4.9042 0 9.7376 0.0644 4.8301 0.0644 6.5218 0.51555 4.553 1.7368-7.4756 4.64-16.926 11.097-34.262 17.046-35.786 12.293-77.965 11.906-77.965 11.906 30.869-1.0311 44.612-5.278 60.707-11.645 16.095-6.3704 24.338-14.091 27.766-16.601 3.4284-2.5069 2.3329-2.5069 9.4637-2.5069m42.975-65.237c12.267-0.0967-4.6594-0.0322 1.2857-0.0161 8.0749 0.0225 12.19-0.0741 11.922 1.856-0.27067 1.9333-2.5359 15.434-7.9138 26.725-5.3811 11.291-14.603 21.618-17.023 24.318-2.4231 2.7034-1.5853 2.9548-8.8515 3.1449-7.2629 0.19333-0.78622 0.0612-10.285-0.0354-9.4959-0.0967-9.6538 0.0741-7.6754-2.6261 1.9784-2.7035 10.807-15.393 14.245-25.285 3.1546-9.0738 5.7324-21.56 5.9386-25.256 0.19011-3.48 6.8569-2.7357 18.357-2.8259m-81.619 65.237c0.95378 0 9.1318 0 12.36 0.0644 3.2287 0.0644 4.3564 0.51555 3.0418 1.7368-4.9944 4.64-11.31 11.097-22.891 17.046-23.909 12.293-52.12 11.906-52.12 11.906 18.637-1.0311 27.399-5.278 37.117-11.645 9.7182-6.3704 14.59-14.091 16.659-16.601 2.0751-2.5069 1.5241-2.5069 5.8322-2.5069m25.469-65.237c7.4079-0.0967 5.8129-0.0322 9.773-0.0161 5.3843 0.0225 8.1297-0.0741 7.9492 1.856-0.17722 1.9333-1.6884 15.434-5.2748 26.725-3.5896 11.291-9.7376 21.618-11.352 24.318-1.6143 2.7034-1.0569 2.9548-5.8999 3.1449-4.843 0.19333-7.54 0.0612-13.276-0.0354-5.7356-0.0967-5.8322 0.0741-4.6368-2.6261 1.1954-2.7035 6.3542-16.021 8.6034-25.285 2.1589-8.9095 3.4607-21.56 3.5831-25.256 0.116-3.48 3.5896-2.7357 10.53-2.8259m-60.062 65.237c0.38022 0 11.149 0 12.87 0.0644s2.4843 0.51555 1.7851 1.7368c-2.6648 4.64-6.1867 11.097-12.364 17.046-12.744 12.293-27.779 11.906-27.779 11.906 7.453-1.0311 10.956-5.278 14.845-11.645 3.886-6.3704 5.9869-14.091 6.815-16.601 0.82811-2.5069 2.1009-2.5069 3.8248-2.5069m9.0158-65.237c-2.7776 0.0902-4.7786-0.19333-4.6851 3.2802 0.0999 3.6669-0.38023 16.021-1.4339 24.802-1.0504 8.7806-2.9644 22.581-3.4381 25.285-0.48011 2.7002 0.47689 2.5294 2.7711 2.6261 2.2942 0.0967 12.138 0.0741 14.719-0.116 2.5778-0.19333 2.7711-0.29 3.6314-2.9934 0.86034-2.7002 4.0117-13.027 5.9257-24.318 1.9108-11.291 2.6745-24.415 2.7711-26.345 0.0967-1.9333-1.3404-1.9333-4.205-2.1267-2.8678-0.19333-13.095-0.19333-16.056-0.0967m-88.215-0.203c-1.624 0-2.9644 0.29-3.3447 2.03a162.02 162.02 0 0 0-1.2438 6.4638c-0.57356 3.1868-0.0967 3.8602 2.3909 3.8602h25.614c1.9108 0 2.2942-0.19334 2.0074 1.74-0.29 1.9269-7.8397 44.679-8.41 48.153-0.57356 3.4768 0.76367 3.6894 2.9612 3.6894 2.7711 0 7.0728 0.0741 10.227-0.0322 3.1513-0.0967 3.3447-1.0601 3.8216-3.2802s8.3134-47.093 8.6034-48.636c0.28677-1.5467 0.76366-1.6433 1.624-1.6433h27.141c1.5306 0 2.581 0.19333 3.1578-1.9301 0.57034-2.1234 1.2406-6.5605 1.334-7.9138 0.0967-1.3501 0.38667-2.5069-2.4811-2.5069h-73.402m-12.36 0.45111c-3.4413 0-41.67 0.12889-47.915 0.12889-6.2447 0-19.498-0.25778-21.154 18.914-1.6562 19.172 12.489 18.914 16.565 18.914h34.027c2.4167 0 6.3704 0.25777 6.3704 3.9891v5.1459c0 3.0901-1.5306 6.0481-5.8645 6.0481h-53.263c-2.2942 0-3.9504-0.25777-4.4628 1.8044-0.50912 2.0558-1.1439 6.5605-1.4017 7.8461-0.25456 1.2889-0.63478 2.9612 2.5488 2.9612h51.61c9.686 0 20.39-1.0311 22.684-14.026 2.2942-12.995 1.4017-26.635-16.056-26.635h-34.281c-2.5456 0-5.3489-0.77333-5.3489-5.7904 0-5.0202 2.4167-6.6926 6.7506-6.6926h46.448c3.6959 0 3.7603-0.38667 4.3983-4.118 0.63801-3.7313 0.63801-4.7592 0.89256-6.5605 0.25456-1.8044-0.76689-1.9333-2.5488-1.9333m-109.78 37.742c0.54134 0 0.73145-0.29 0.50912-0.96666-0.22556-0.67667-8.1845-23.306-8.2715-23.642-0.0773-0.29-0.18044-0.50911-0.57356 0.0322l-16.962 23.548c-0.34801 0.48334-0.57356 0.96667 0.0644 0.96667l25.23 0.0645m29.342 24.83c0.67022 1.8367 1.2438 2.5101-2.0074 2.8001-3.248 0.29-10.608 0.19333-12.902 0s-4.205-0.19333-5.1588-2.8968a1247.4 1247.4 0 0 1-4.0149-11.677c-0.38344-1.16-0.47689-1.9301-2.0074-1.9301h-34.694c-1.624 0-2.6744 0.0967-3.7281 1.45-1.0504 1.3501-8.0266 11.387-9.077 12.737-1.0537 1.3533-2.6744 2.2201-5.0654 2.3168-2.3909 0.0967-10.26 0.25778-11.661-0.12889-1.1987-0.33189-2.0719-0.25778-0.0644-2.9612 1.3211-1.7754 42.021-58.58 43.358-60.314 1.3404-1.74 2.3909-2.3168 5.2587-2.3168s3.8216-0.0967 5.7356-0.0967c1.9108 0 5.7324 0.29 7.453 0.29s2.3877 0 4.0149 4.0536c1.624 4.0536 23.893 56.84 24.56 58.677m-136.76-0.38666c0.77334-4.2308 9.7472-57.133 10.227-59.643 0.47689-2.5069 1.7207-2.8936 4.5852-2.8936h53.331c2.3909 0 3.248 0.48334 2.8678 3.0869a80.395 80.395 0 0 1-1.1471 6.467c-0.47689 2.1234-0.67023 3.0869-4.4918 3.0869-3.8248 0-34.12 0.0967-36.224 0.0967-2.1009 0-3.0579-0.38667-3.5348 2.7034-0.47689 3.0869-1.7207 9.5539-1.9108 11.484-0.19334 1.9301-0.38345 2.3168 1.4339 2.3168 1.8141 0 24.083-0.0967 25.9-0.0967 1.8141 0 2.3877 0.29 2.1976 2.4102-0.19334 2.1267-0.95701 6.9504-1.4339 8.6871-0.47689 1.7368-1.0504 2.4134-3.7281 2.4134-2.6744 0-23.319-0.0967-25.037-0.0967-1.7239 0-2.1041 0.19333-2.3909 1.9301a2783 2783 0 0 1-3.2512 18.238c-0.38022 2.0268-0.667 2.8968-4.4918 3.0869-3.8216 0.19334-7.8365 0-10.417 0-2.5778 0-2.9644-0.67666-2.4843-3.2802" fill="#fdc400"/>
</svg>
