<?xml version="1.0" encoding="UTF-8" standalone="no"?>
<svg
   xmlns:dc="http://purl.org/dc/elements/1.1/"
   xmlns:cc="http://creativecommons.org/ns#"
   xmlns:rdf="http://www.w3.org/1999/02/22-rdf-syntax-ns#"
   xmlns:svg="http://www.w3.org/2000/svg"
   xmlns="http://www.w3.org/2000/svg"
   version="1.1"
   id="svg4266"
   viewBox="0 0 925.16269 145.77191"
   height="41.140072mm"
   width="261.10147mm">
  <defs
     id="defs4268">
    <clipPath
       id="clipPath4172"
       clipPathUnits="userSpaceOnUse">
      <path
         id="path4174"
         d="m 425.197,42.52 127.559,0 0,20.099 -127.559,0 0,-20.099 z" />
    </clipPath>
  </defs>
  <metadata
     id="metadata4271">
    <rdf:RDF>
      <cc:Work
         rdf:about="">
        <dc:format>image/svg+xml</dc:format>
        <dc:type
           rdf:resource="http://purl.org/dc/dcmitype/StillImage" />
        <dc:title></dc:title>
      </cc:Work>
    </rdf:RDF>
  </metadata>
  <g
     transform="translate(68.295561,-314.08629)"
     id="layer1">
    <g
       id="g4168"
       transform="matrix(7.2528386,0,0,-7.2528386,-3152.1815,768.24889)">
      <g
         clip-path="url(#clipPath4172)"
         id="g4170">
        <g
           transform="translate(448.8197,54.3614)"
           id="g4176">
          <path
             id="path4178"
             style="fill:#005475;fill-opacity:1;fill-rule:nonzero;stroke:none"
             d="m 0,0 c 0,3.835 1.42,5.194 5.425,5.194 3.899,0 5.349,-1.408 5.349,-5.194 l 0,-3.584 c 0,-3.787 -1.45,-5.195 -5.349,-5.195 C 1.47,-8.779 0,-7.371 0,-3.584 L 0,0 Z M 5.425,8.257 C -0.31,8.257 -3.217,5.479 -3.217,0 l 0,-3.584 c 0,-5.634 2.746,-8.258 8.642,-8.258 5.684,0 8.566,2.778 8.566,8.258 l 0,3.584 c 0,5.633 -2.722,8.257 -8.566,8.257" />
        </g>
        <g
           transform="translate(489.9461,54.3614)"
           id="g4180">
          <path
             id="path4182"
             style="fill:#005475;fill-opacity:1;fill-rule:nonzero;stroke:none"
             d="m 0,0 c 0,3.835 1.42,5.194 5.425,5.194 3.899,0 5.348,-1.408 5.348,-5.194 l 0,-3.584 c 0,-3.787 -1.449,-5.195 -5.348,-5.195 C 1.47,-8.779 0,-7.371 0,-3.584 L 0,0 Z M 5.425,8.257 C -0.31,8.257 -3.217,5.479 -3.217,0 l 0,-3.584 c 0,-5.634 2.746,-8.258 8.642,-8.258 5.684,0 8.566,2.778 8.566,8.258 l 0,3.584 c 0,5.633 -2.722,8.257 -8.566,8.257" />
        </g>
        <g
           transform="translate(429.2371,46.5434)"
           id="g4184">
          <path
             id="path4186"
             style="fill:#005475;fill-opacity:1;fill-rule:nonzero;stroke:none"
             d="m 0,0 c 1.36,0.376 2.358,1.622 2.358,3.101 0,0.275 -0.034,0.542 -0.099,0.797 l 0,0 -3.033,11.792 -3.266,0 3.752,-14.697 C -0.194,0.641 -0.099,0.31 0,0" />
        </g>
        <g
           transform="translate(440.1961,62.2333)"
           id="g4188">
          <path
             id="path4190"
             style="fill:#005475;fill-opacity:1;fill-rule:nonzero;stroke:none"
             d="m 0,0 -3.731,-14.656 c -0.469,-1.721 -1.035,-1.995 -2.116,-1.995 -0.011,0 -0.022,0 -0.032,0.001 l -4.739,0 c 0.348,-0.878 0.729,-1.531 1.151,-1.978 0.736,-0.695 1.954,-1.047 3.62,-1.047 1.682,0 2.888,0.353 3.587,1.053 0.686,0.726 1.266,2.009 1.774,3.926 L 3.306,0 0,0 Z" />
        </g>
        <g
           transform="translate(530.8503,62.2332)"
           id="g4192">
          <path
             id="path4194"
             style="fill:#005475;fill-opacity:1;fill-rule:nonzero;stroke:none"
             d="m 0,0 -0.005,0 c -1.772,-0.003 -3.209,-1.438 -3.212,-3.21 l 0,-16.118 3.344,0 L 0.127,0 0,0 Z" />
        </g>
        <g
           transform="translate(469.6474,55.4874)"
           id="g4196">
          <path
             id="path4198"
             style="fill:#005475;fill-opacity:1;fill-rule:nonzero;stroke:none"
             d="M 0,0 C 0,1.567 -1.121,2.872 -2.604,3.159 -3.012,2.198 -3.22,1.065 -3.22,-0.24 l 0,-12.342 3.217,0 0,12.342 c 0,0.081 0.001,0.161 0.003,0.24 z" />
        </g>
        <g
           transform="translate(474.7981,62.6186)"
           id="g4200">
          <path
             id="path4202"
             style="fill:#005475;fill-opacity:1;fill-rule:nonzero;stroke:none"
             d="m 0,0 c -3.51,0 -5.968,-1.027 -7.276,-3.063 l 7.276,0 c 3.636,0 5.076,-1.127 5.076,-4.308 l 0,-12.343 3.256,0 0,12.343 C 8.332,-2.411 5.504,0 0,0" />
        </g>
        <g
           transform="translate(510.0978,46.5434)"
           id="g4204">
          <path
             id="path4206"
             style="fill:#005475;fill-opacity:1;fill-rule:nonzero;stroke:none"
             d="m 0,0 c 1.36,0.376 2.358,1.622 2.358,3.101 0,0.275 -0.034,0.542 -0.099,0.797 l 0,0 -3.033,11.792 -3.266,0 3.752,-14.697 C -0.194,0.641 -0.099,0.31 0,0" />
        </g>
        <g
           transform="translate(521.0569,62.2333)"
           id="g4208">
          <path
             id="path4210"
             style="fill:#005475;fill-opacity:1;fill-rule:nonzero;stroke:none"
             d="m 0,0 -3.731,-14.656 c -0.47,-1.721 -1.035,-1.995 -2.116,-1.995 -0.011,0 -0.022,0 -0.032,0.001 l -4.74,0 c 0.349,-0.878 0.73,-1.531 1.152,-1.978 0.736,-0.695 1.953,-1.047 3.62,-1.047 1.682,0 2.887,0.353 3.587,1.053 0.685,0.726 1.266,2.009 1.774,3.926 L 3.306,0 0,0 Z" />
        </g>
        <g
           transform="translate(543.5301,59.7006)"
           id="g4212">
          <path
             id="path4214"
             style="fill:#005475;fill-opacity:1;fill-rule:nonzero;stroke:none"
             d="M 0,0 4.469,0 C 4.156,0.805 3.818,1.411 3.419,1.833 2.684,2.528 1.666,2.918 0,2.918 -1.682,2.918 -2.699,2.526 -3.399,1.826 -4.084,1.101 -4.583,-0.183 -5.092,-2.099 l -4.135,-14.696 3.38,0 4.059,14.805 C -1.318,-0.269 -1.02,0 0,0" />
        </g>
        <g
           transform="translate(548.6578,57.6024)"
           id="g4216">
          <path
             id="path4218"
             style="fill:#005475;fill-opacity:1;fill-rule:nonzero;stroke:none"
             d="m 0,0 c -0.108,0.407 -0.216,0.785 -0.326,1.135 -1.341,-0.388 -2.322,-1.625 -2.322,-3.091 0,-0.296 0.04,-0.583 0.114,-0.855 l 0,0 0.974,-3.517 -3.377,0 c -1.71,0 -3.108,-1.333 -3.211,-3.017 l 7.424,0 1.482,-5.352 3.34,0 L 0,0 Z" />
        </g>
      </g>
    </g>
  </g>
</svg>
